<?xml version="1.0" standalone="no"?>
<!DOCTYPE svg PUBLIC "-//W3C//DTD SVG 20010904//EN"
 "http://www.w3.org/TR/2001/REC-SVG-20010904/DTD/svg10.dtd">
<svg version="1.0" xmlns="http://www.w3.org/2000/svg"
 width="433.000000pt" height="577.000000pt" viewBox="0 0 433.000000 577.000000"
 preserveAspectRatio="xMidYMid meet">

<g transform="translate(0.000000,577.000000) scale(0.100000,-0.100000)"
fill="#000000" stroke="none">
<path d="M1784 4768 c3 -18 3 -27 0 -20 -3 6 -9 12 -14 12 -11 0 -6 -45 7 -62
6 -7 13 -22 17 -33 3 -11 16 -31 27 -45 11 -14 17 -18 13 -11 -4 8 8 4 27 -9
l34 -25 -17 27 c-22 33 -23 51 -3 24 8 -11 15 -16 15 -10 0 5 7 0 15 -10 13
-17 15 -17 15 -3 0 9 6 14 13 11 8 -3 13 5 15 21 1 14 -3 25 -8 25 -6 0 -10
15 -10 34 0 20 -8 42 -17 52 -17 17 -18 15 -23 -37 l-5 -54 -19 58 c-18 55
-36 83 -36 56 0 -7 -9 -3 -20 9 -28 30 -33 28 -26 -10z"/>
<path d="M1698 4708 c7 -7 12 -16 12 -20 0 -11 -38 -10 -60 2 -15 8 -19 7 -17
-9 0 -11 4 -18 8 -15 4 2 9 -2 12 -10 4 -11 -2 -12 -31 -5 -20 5 -46 9 -57 9
-17 0 -15 -4 10 -20 17 -11 24 -20 15 -20 -11 -1 -8 -6 9 -20 23 -20 23 -20 2
-20 -12 0 -20 -4 -17 -9 3 -5 -14 -3 -39 5 -25 7 -45 11 -45 8 0 -3 -8 0 -18
5 -14 8 -19 6 -19 -5 0 -7 6 -14 12 -14 7 0 20 -10 31 -22 15 -19 16 -20 2 -9
-11 8 -18 9 -18 3 0 -6 5 -14 10 -17 16 -10 12 -35 -6 -35 -8 0 -13 -4 -10 -9
8 -12 -17 -21 -46 -15 -19 4 -18 3 7 -12 l30 -18 -25 -6 -25 -7 25 -4 25 -4
-27 -26 c-16 -15 -28 -29 -28 -33 0 -12 -28 -36 -41 -36 -10 0 -10 -3 -1 -12
17 -17 15 -23 -15 -37 -22 -10 -24 -14 -12 -22 11 -8 11 -12 2 -16 -20 -7 -15
-23 5 -16 12 4 11 1 -5 -11 -38 -28 -95 -115 -98 -149 -1 -17 -5 -43 -9 -57
-5 -22 -3 -21 22 10 38 50 82 94 82 85 0 -5 -17 -29 -38 -54 -34 -42 -82 -128
-97 -176 -9 -29 -26 2 -19 35 l6 25 -22 -25 -21 -25 19 40 c11 22 17 45 15 52
-5 14 34 128 56 163 10 15 11 21 4 17 -20 -13 -15 5 12 45 26 38 31 53 16 44
-5 -4 -8 0 -7 8 1 8 22 33 46 55 25 22 39 40 31 41 -11 0 -10 4 4 14 16 12 13
14 -31 20 -27 4 -58 7 -69 7 -10 0 -24 4 -30 9 -21 17 -151 24 -199 10 -25 -7
-43 -16 -40 -21 2 -4 15 -5 27 -1 12 4 45 5 72 1 l50 -6 -50 -3 -50 -3 55 -6
55 -6 -70 -8 c-38 -4 -77 -12 -85 -18 -10 -6 -1 -8 30 -4 l45 5 -49 -15 c-56
-19 -56 -32 1 -16 21 6 63 10 93 10 l55 -1 -78 -15 c-42 -8 -75 -18 -72 -23 3
-4 -1 -13 -9 -19 -8 -7 -12 -21 -9 -31 3 -11 0 -27 -7 -35 -10 -12 -10 -15 0
-15 8 0 10 -3 7 -7 -4 -3 -2 -12 3 -19 8 -8 6 -17 -5 -28 -15 -15 -15 -16 4
-16 23 0 26 -12 11 -40 -9 -16 -8 -18 6 -13 14 5 15 3 5 -15 -8 -15 -8 -22 -1
-22 7 0 8 -6 2 -17 -5 -10 -7 -24 -5 -30 3 -7 -6 -30 -18 -50 -13 -20 -17 -33
-9 -28 15 9 7 -9 -17 -37 -8 -9 -16 -29 -18 -45 -3 -28 11 -57 24 -49 4 3 5
-11 3 -31 -4 -35 -4 -35 26 -28 49 10 101 -26 103 -72 1 -39 12 -74 24 -76 6
-1 9 -6 7 -10 -1 -5 2 -6 8 -2 5 3 10 15 10 25 0 31 22 122 27 116 3 -3 6 -39
6 -81 -1 -41 3 -78 8 -81 5 -3 9 -43 9 -90 0 -53 4 -84 11 -84 6 0 8 -9 4 -20
-8 -24 7 -26 26 -4 20 25 61 37 71 22 6 -10 8 -8 8 5 0 10 7 20 16 24 11 4 12
8 4 13 -7 4 -9 13 -6 19 4 6 10 9 14 7 4 -2 8 21 10 51 1 31 7 63 13 72 7 11
9 -3 7 -52 -2 -37 1 -67 5 -67 5 0 8 -10 7 -22 -1 -13 -1 -39 0 -58 2 -33 2
-34 11 -10 6 19 8 12 5 -25 -3 -27 -7 -59 -10 -70 -4 -11 2 -4 11 15 32 62 35
66 44 43 22 -61 -57 -175 -145 -208 -49 -19 -61 -45 -28 -64 9 -6 13 -11 7
-11 -5 0 -3 -5 5 -11 13 -9 13 -10 -2 -6 -9 3 -22 -1 -28 -9 -7 -8 -19 -14
-26 -14 -8 0 -14 -5 -14 -10 0 -6 3 -9 8 -9 4 1 18 0 32 -1 24 -2 24 -3 -5
-10 l-30 -8 31 -1 c37 -1 47 -10 34 -27 -8 -8 -6 -16 4 -27 8 -8 12 -18 8 -22
-4 -5 -1 -5 6 -1 7 4 10 12 7 17 -4 5 5 9 19 9 14 0 28 5 31 11 4 6 14 8 22 5
9 -4 11 -2 7 6 -5 8 2 9 22 4 21 -5 25 -4 14 4 -12 7 -8 10 17 10 17 0 39 3
49 7 16 6 16 7 -2 14 -17 7 -16 8 6 9 14 2 28 2 32 1 4 0 17 12 29 27 l22 27
-5 -27 c-3 -18 0 -29 9 -32 20 -8 20 -8 26 14 3 13 0 20 -8 20 -16 0 -30 58
-23 95 6 31 0 32 -12 3 l-9 -23 -7 22 c-3 13 -11 20 -16 17 -5 -3 -4 4 4 15
11 18 11 23 -1 30 -21 13 -4 53 20 46 14 -5 17 -3 13 9 -8 20 -33 21 -40 1 -4
-8 -10 -15 -16 -15 -5 0 -7 4 -3 9 3 5 1 12 -4 15 -5 4 -5 21 -1 43 5 22 5 42
0 49 -6 6 -6 15 -2 19 4 5 -1 5 -10 2 -21 -7 -23 4 -5 22 12 12 18 81 6 81 -3
0 -11 -6 -18 -12 -11 -11 -12 -9 -6 11 4 13 8 39 10 58 1 19 9 43 18 54 21 24
22 45 2 57 -14 7 -13 12 6 36 12 15 19 35 16 46 -3 11 -1 23 4 26 5 3 7 10 4
15 -4 5 -1 9 4 9 6 0 11 -15 11 -34 0 -19 7 -41 15 -50 9 -8 14 -20 13 -27 -2
-6 5 -13 15 -14 11 -2 22 -7 25 -11 4 -4 -1 -4 -10 -1 -10 4 -18 2 -18 -3 0
-6 9 -10 20 -10 11 0 30 -6 41 -12 17 -11 23 -10 39 10 10 12 22 22 26 22 4 0
-1 -10 -12 -22 l-19 -23 23 20 c13 10 33 20 46 22 20 3 22 0 18 -32 -2 -19 -8
-38 -13 -41 -5 -3 -9 -10 -9 -15 0 -6 5 -7 12 -3 6 4 4 -3 -5 -17 -23 -32 -21
-49 3 -44 27 5 54 26 58 45 2 8 13 30 24 48 15 24 24 30 31 23 14 -14 37 -14
37 -1 0 13 49 60 62 60 5 0 6 5 3 10 -3 6 1 10 10 10 9 0 13 5 10 10 -3 6 4
10 16 10 12 0 19 3 16 7 -4 3 -2 12 3 19 6 6 10 16 8 20 -1 5 4 32 11 61 13
54 8 81 -12 65 -7 -4 -19 -8 -27 -7 -8 0 -23 -8 -32 -19 -18 -19 -18 -19 -18
2 0 15 -5 20 -15 16 -8 -4 -12 -10 -9 -15 5 -8 -18 -14 -40 -10 -5 1 -6 -5 -3
-13 3 -8 -1 -17 -8 -20 -21 -8 -50 95 -35 124 9 16 8 20 -4 20 -10 0 -13 -6
-9 -16 5 -14 3 -15 -14 -6 -11 6 -23 8 -27 5 -3 -3 -6 0 -6 8 0 26 -21 39 -43
28 -14 -8 -17 -8 -13 0 13 20 -49 42 -91 32 -21 -5 -30 -9 -19 -10 14 -1 16
-4 7 -14 -6 -8 -8 -17 -4 -20 3 -4 1 -7 -5 -7 -11 0 -65 -84 -68 -105 0 -5 -2
-15 -2 -22 -1 -7 -8 -10 -16 -7 -15 6 -17 78 -2 102 4 7 6 16 2 19 -3 3 2 12
10 20 8 8 12 18 9 22 -2 5 5 18 16 29 18 21 17 27 -5 23 -5 -1 -4 5 4 14 9 11
16 12 25 5 9 -8 17 -4 29 14 9 14 12 27 7 31 -5 3 -12 -1 -14 -7 -3 -7 -6 -2
-6 12 -1 37 13 53 38 45 12 -4 21 -2 21 4 0 6 -13 11 -30 11 -16 0 -30 2 -30
4 0 16 32 76 41 76 6 0 17 6 24 14 12 11 10 15 -11 27 -14 7 -22 19 -20 26 3
7 0 13 -7 13 -7 0 -4 6 6 14 16 13 15 15 -20 24 -25 7 -31 10 -15 11 12 1 22
6 22 11 0 6 11 10 25 10 14 0 25 5 25 11 0 5 5 7 10 4 6 -3 10 -2 10 3 0 5 10
14 23 20 l22 11 -23 0 c-14 1 -21 5 -16 12 3 6 0 15 -7 20 -10 6 -6 9 14 9 16
0 26 4 22 9 -3 6 3 14 12 20 17 10 17 10 1 11 -10 0 -18 4 -18 8 0 16 23 30
39 25 9 -2 3 6 -12 20 -25 21 -26 25 -12 31 9 3 21 4 26 1 5 -4 6 2 2 11 -6
17 -5 17 17 1 30 -21 36 -21 44 -1 3 8 2 13 -2 11 -4 -2 -20 12 -37 31 -16 20
-23 32 -15 27 8 -4 -9 15 -39 43 -30 29 -57 52 -60 52 -3 0 0 -5 7 -12z m-148
-153 c17 -9 30 -17 30 -20 0 -7 -60 16 -66 26 -8 13 3 11 36 -6z m-240 -219
c0 -2 -7 -7 -16 -10 -8 -3 -12 -2 -9 4 6 10 25 14 25 6z m147 -238 c-55 -69
-105 -160 -117 -212 -10 -45 -40 -104 -40 -79 0 6 15 54 34 107 18 53 29 99
24 102 -4 3 -6 10 -2 15 3 5 9 7 13 5 4 -3 32 19 61 49 30 30 56 55 58 55 2 0
-12 -19 -31 -42z m-123 -151 c-9 -26 -18 -47 -21 -47 -5 0 3 31 19 73 18 46
19 24 2 -26z m-47 -39 c-3 -8 -6 -5 -6 6 -1 11 2 17 5 13 3 -3 4 -12 1 -19z
m-16 -55 c-9 -15 -10 -14 -7 7 6 35 7 37 12 23 3 -7 1 -20 -5 -30z m449 -64
c0 -11 13 -27 31 -38 l30 -18 -26 0 c-15 0 -29 6 -32 13 -8 20 -23 17 -23 -4
0 -27 34 -54 61 -50 46 7 71 28 66 55 -4 22 -3 23 10 10 39 -38 -32 -127 -102
-127 -61 0 -113 86 -82 134 37 56 67 68 67 25z m193 -164 c-3 -9 -8 -14 -10
-11 -3 3 -2 9 2 15 9 16 15 13 8 -4z m-156 -28 c0 -8 -6 -14 -14 -14 -14 0
-17 10 -6 20 10 11 20 8 20 -6z m-95 -14 c-10 -4 -10 -8 0 -21 12 -15 11 -16
-4 -3 -10 7 -18 17 -18 22 0 5 8 9 18 8 11 0 12 -2 4 -6z m-82 -576 c0 -15
-29 -57 -30 -42 0 6 3 20 6 33 7 24 24 31 24 9z m-30 -6 c0 -5 -8 -15 -17 -22
-16 -12 -17 -12 -6 2 7 9 10 19 6 22 -3 4 -1 7 5 7 7 0 12 -4 12 -9z m-211
-25 c-15 -13 -49 -25 -49 -17 0 5 8 12 18 14 24 6 36 8 31 3z"/>
<path d="M3235 4670 c-46 -23 -49 -24 -39 -8 5 8 2 9 -10 5 -10 -4 -25 -7 -34
-7 -9 0 -33 -10 -52 -22 -19 -12 -42 -21 -52 -19 -9 1 -19 -3 -23 -10 -5 -8
-1 -9 15 -4 16 5 20 4 15 -5 -5 -8 4 -10 32 -6 l38 6 -35 -11 -35 -12 27 -11
27 -12 -27 -11 c-94 -39 -122 -53 -122 -58 0 -4 9 -4 19 0 11 3 22 1 25 -4 4
-6 18 -6 39 0 41 12 46 11 27 -2 -11 -8 -8 -9 17 -5 22 4 33 1 37 -10 5 -13 0
-14 -27 -9 -25 5 -29 4 -17 -5 12 -9 11 -10 -7 -5 -12 3 -35 -1 -51 -9 -23
-12 -32 -12 -42 -3 -10 9 -11 9 -5 -2 6 -11 4 -13 -11 -6 -32 13 -76 13 -81 0
-2 -7 -13 -11 -24 -8 -13 4 -19 0 -19 -12 0 -11 5 -15 15 -11 8 3 14 0 12 -6
-1 -7 12 -15 28 -19 17 -4 24 -7 18 -8 -7 0 -13 -5 -13 -11 0 -5 6 -8 13 -6
33 11 77 15 73 7 -3 -5 8 -11 24 -15 17 -3 30 -10 30 -16 0 -5 -3 -9 -7 -9 -5
1 -15 1 -23 0 -13 -1 -13 -2 0 -11 8 -5 10 -10 5 -10 -6 0 -16 5 -23 12 -9 9
-12 8 -12 -6 0 -13 7 -17 28 -16 46 3 63 0 58 -9 -4 -5 0 -12 6 -14 8 -3 6 -6
-5 -6 -10 -1 -16 -5 -13 -10 4 -5 -3 -7 -15 -4 -14 4 -17 8 -9 13 22 14 -5 17
-34 5 -27 -11 -28 -13 -10 -23 13 -8 14 -11 5 -12 -11 0 -10 -4 5 -16 18 -14
18 -15 -4 -4 -13 7 -21 14 -18 17 8 8 -38 31 -77 38 -34 7 -147 -36 -147 -55
0 -9 33 2 75 26 12 7 30 8 45 4 14 -5 20 -8 13 -9 -6 -1 -9 -10 -6 -21 3 -12
0 -20 -6 -20 -7 0 -9 -5 -6 -10 4 -6 16 -8 28 -5 13 4 17 3 11 -2 -11 -7 -18
-34 -15 -59 0 -5 17 -16 36 -24 19 -8 35 -18 35 -24 0 -5 7 -18 17 -28 23 -26
15 -29 -49 -18 -32 5 -69 5 -85 0 l-28 -8 30 -2 c30 -2 30 -2 5 -10 -19 -6 -9
-8 37 -9 49 -1 61 -4 57 -15 -4 -10 -14 -12 -39 -6 -27 6 -38 4 -51 -11 -11
-12 -21 -16 -27 -10 -5 5 -17 7 -26 4 -13 -5 -13 -2 3 15 17 19 17 22 3 22
-10 0 -17 -7 -17 -15 0 -24 4 -30 18 -29 10 2 10 -1 1 -12 -9 -11 -14 -11 -27
2 -14 15 -17 14 -33 -8 -10 -12 -19 -28 -19 -35 0 -6 -9 -15 -20 -18 -13 -4
-20 -16 -21 -33 0 -24 -1 -25 -9 -7 -7 16 -9 12 -10 -20 -1 -22 -4 -34 -7 -27
-2 6 -9 12 -14 12 -6 0 -9 -6 -8 -12 3 -20 -12 -48 -22 -42 -6 3 -16 0 -24 -6
-8 -7 -16 -10 -16 -6 -1 3 -3 11 -4 16 -1 6 -3 16 -4 23 -1 9 -4 8 -10 -2 -11
-17 -41 -7 -41 14 0 10 5 13 13 9 9 -6 9 -4 0 7 -7 7 -13 23 -13 35 0 12 -3
29 -6 38 -11 29 -21 17 -18 -21 2 -21 3 -38 4 -38 1 0 3 -13 4 -30 7 -77 18
-130 28 -136 6 -4 8 -11 5 -16 -3 -5 3 -15 13 -23 10 -8 17 -17 14 -21 -2 -5
18 -26 47 -49 44 -35 49 -47 16 -41 -5 1 -6 -3 -2 -8 3 -6 12 -8 19 -5 7 3 19
-3 27 -13 13 -16 12 -17 -3 -4 -12 9 -18 10 -18 2 0 -6 8 -15 18 -18 9 -4 25
-15 35 -26 14 -17 17 -18 17 -4 0 10 -5 17 -11 17 -5 0 -8 4 -5 9 3 5 -1 15
-10 22 -9 7 -20 24 -25 37 -5 13 -13 21 -17 18 -5 -3 -9 1 -9 8 0 16 32 9 48
-10 15 -19 33 -18 25 1 -6 17 9 21 19 5 3 -6 6 -28 7 -49 0 -30 8 -47 30 -70
17 -17 35 -31 40 -31 14 0 40 -69 33 -90 -3 -10 -1 -21 4 -25 7 -4 8 1 4 11
-4 12 -3 15 5 10 7 -4 12 -13 12 -19 0 -27 17 -39 37 -29 15 8 20 8 20 -3 0
-7 -7 -11 -15 -7 -10 3 -13 0 -10 -9 3 -8 14 -13 26 -12 12 2 22 -5 25 -16 2
-11 14 -24 26 -30 20 -11 21 -10 16 31 -3 24 -7 57 -10 75 -5 38 11 47 50 27
15 -8 33 -14 41 -14 7 0 12 -9 11 -20 -1 -11 -6 -20 -11 -20 -5 0 0 -10 11
-22 35 -39 39 -52 15 -46 -12 4 -20 2 -16 -3 9 -15 -8 -10 -30 8 -20 16 -19
16 1 -6 l21 -24 -22 -21 c-12 -11 -27 -39 -34 -61 -8 -22 -20 -55 -29 -73 -8
-18 -12 -40 -9 -48 3 -8 -1 -14 -10 -14 -9 0 -12 5 -8 13 4 6 -2 3 -13 -8 -11
-11 -18 -26 -15 -32 6 -18 22 -16 22 3 0 11 5 14 16 10 9 -3 20 -6 26 -6 6 0
4 -8 -5 -18 -10 -10 -17 -23 -17 -29 0 -6 -6 -13 -13 -16 -7 -2 -13 -20 -12
-38 0 -28 3 -33 20 -31 26 5 44 22 23 22 -9 0 -19 4 -22 9 -4 5 3 7 14 4 12
-3 22 1 26 11 3 9 10 13 16 10 5 -3 32 -2 61 2 l52 7 -35 12 c-29 10 -32 13
-15 17 19 5 19 6 -2 7 -49 3 14 81 66 81 14 0 39 11 55 25 33 28 58 32 76 10
7 -8 21 -15 31 -15 26 0 137 -102 160 -147 22 -43 24 -56 5 -30 -8 10 -16 15
-18 10 -2 -4 6 -19 19 -32 20 -21 23 -22 29 -7 6 17 -33 116 -46 116 -3 0 -14
15 -24 33 -11 17 -28 43 -40 57 -14 16 -15 20 -3 11 22 -17 22 -3 1 43 -12 23
-14 43 -9 62 l8 29 7 -25 c5 -17 8 1 9 54 1 69 3 77 16 66 11 -9 15 -9 15 -1
0 7 4 10 9 7 5 -3 8 28 6 70 l-2 77 19 -24 20 -24 -7 28 c-6 31 1 67 15 67 4
0 13 -12 19 -27 6 -16 22 -48 35 -72 l24 -44 -5 49 c-4 47 -4 48 11 24 l15
-25 1 36 c0 19 -9 55 -21 79 -12 24 -27 62 -35 84 l-15 41 31 -35 c17 -19 40
-52 51 -73 11 -22 22 -37 24 -35 6 6 -16 123 -30 153 -22 52 -23 60 -7 78 14
15 13 17 -1 17 -10 0 -17 -5 -17 -11 0 -7 -18 11 -40 39 -45 56 -48 64 -22 56
9 -4 4 5 -13 20 -16 14 -26 25 -21 26 6 0 1 7 -10 15 -10 8 -14 14 -9 14 6 0
19 -6 29 -14 10 -8 23 -12 27 -9 14 8 96 -38 189 -107 61 -46 64 -46 57 -9 -6
29 -5 31 9 19 13 -10 17 -10 25 2 8 13 13 44 10 62 -1 5 3 5 9 2 18 -11 60 4
60 22 0 13 3 14 12 5 7 -7 15 -12 19 -12 12 0 49 121 49 159 0 32 -22 121 -41
166 -5 11 -11 40 -14 65 -8 59 -34 80 -149 120 -50 18 -102 39 -116 47 l-25
14 30 -6 c31 -7 71 -13 92 -14 7 -1 24 -12 39 -26 39 -36 64 -34 59 6 -4 32
-21 59 -37 59 -5 0 -28 15 -50 34 -22 19 -66 47 -98 63 -32 15 -56 31 -53 35
2 5 -12 8 -32 8 -33 0 -35 1 -24 21 11 21 10 22 -35 17 -25 -3 -43 -2 -40 3 3
5 15 9 27 9 12 1 33 7 47 14 24 14 24 14 -15 14 -22 0 -48 -4 -57 -9 -11 -6
-18 -6 -18 -1 0 10 -66 -9 -108 -30 -16 -8 -19 -14 -10 -19 6 -4 20 -3 29 2
23 12 32 11 23 -2 -4 -8 1 -9 17 -4 50 16 53 16 19 -2 -29 -15 -44 -17 -85
-10 -27 5 -54 13 -60 19 -7 7 -4 9 10 6 10 -2 29 7 42 19 12 13 32 23 43 23
12 0 18 4 15 10 -3 5 0 7 8 4 8 -3 14 2 14 11 0 9 -10 15 -26 15 -23 1 -24 2
-8 11 30 17 20 32 -18 26 -21 -3 -33 -2 -30 4 4 5 -9 9 -27 9 -25 0 -29 3 -18
10 29 19 -13 11 -55 -10z m-22 -287 c-7 -2 -19 -2 -25 0 -7 3 -2 5 12 5 14 0
19 -2 13 -5z m117 -3 c0 -5 -7 -7 -15 -4 -8 4 -15 8 -15 10 0 2 7 4 15 4 8 0
15 -4 15 -10z m90 -10 c20 -16 21 -19 5 -13 -11 4 -31 13 -45 20 -22 11 -22
13 -5 13 11 0 31 -9 45 -20z m284 -69 c72 -25 116 -51 116 -69 0 -10 -7 -12
-27 -7 -16 3 -29 10 -31 15 -2 5 -9 7 -17 4 -7 -3 -28 7 -45 23 -18 15 -37 28
-43 28 -6 0 -12 6 -14 13 -6 15 -6 16 61 -7z m91 -104 c22 -17 13 -23 -40 -29
-22 -3 -31 -3 -21 -1 16 4 17 7 5 14 -9 5 1 7 26 3 32 -4 36 -3 18 5 -13 6
-23 13 -23 16 0 9 16 5 35 -8z m-198 -3 c-3 -3 -12 -4 -19 -1 -8 3 -5 6 6 6
11 1 17 -2 13 -5z m116 -11 c-7 -2 -19 -2 -25 0 -7 3 -2 5 12 5 14 0 19 -2 13
-5z m-585 -93 c3 -7 -1 -11 -7 -8 -7 2 -11 7 -9 10 2 4 -6 15 -17 24 -19 15
-19 16 4 2 14 -8 27 -21 29 -28z m655 29 c-8 -8 -16 -8 -30 0 -16 9 -14 10 12
11 21 0 26 -3 18 -11z m-618 -29 c3 -5 2 -10 -4 -10 -5 0 -13 5 -16 10 -3 6
-2 10 4 10 5 0 13 -4 16 -10z m552 4 c-3 -3 -12 -4 -19 -1 -8 3 -5 6 6 6 11 1
17 -2 13 -5z m-42 -14 c3 -6 -1 -7 -9 -4 -18 7 -21 14 -7 14 6 0 13 -4 16 -10z
m-62 -55 c49 -4 87 -9 85 -11 -2 -2 -39 -6 -82 -8 -43 -3 -81 -8 -83 -10 -3
-3 22 -8 56 -12 34 -3 61 -10 61 -14 0 -5 10 -6 22 -2 14 3 19 1 14 -6 -4 -7
6 -12 26 -15 31 -4 30 -4 -7 -6 -29 -1 -36 -4 -25 -11 21 -13 7 -22 -21 -12
-28 9 -100 1 -83 -10 7 -4 36 -10 65 -13 108 -10 153 -16 158 -20 2 -3 -10 -5
-27 -5 -17 0 -34 -5 -38 -11 -3 -6 -14 -9 -24 -6 -10 2 -23 1 -30 -3 -7 -5
-30 -2 -51 5 -20 8 -39 12 -41 9 -3 -2 -30 1 -62 7 -36 8 -54 15 -48 21 6 6
18 6 31 -2 12 -6 27 -10 34 -7 11 3 -93 47 -113 47 -6 0 -10 4 -10 9 0 5 -8
12 -17 14 -10 3 -2 5 17 6 31 2 33 3 13 11 -28 12 -30 24 -3 15 27 -9 25 3 -2
15 -17 7 -10 8 27 4 l50 -5 -32 15 c-55 25 -59 25 140 11z m-452 -32 c13 -15
12 -15 -8 -4 -24 12 -29 21 -14 21 5 0 15 -7 22 -17z m-115 -19 c-3 -8 -2 -13
3 -10 4 3 16 -1 26 -8 17 -12 17 -13 1 -19 -10 -4 -15 -3 -11 3 3 6 -2 10 -13
10 -10 0 -21 3 -25 6 -8 8 3 34 15 34 6 0 7 -7 4 -16z m128 -20 c7 -19 2 -18
-19 6 -16 17 -16 20 -3 15 9 -4 19 -13 22 -21z m-401 -39 c4 -8 3 -16 -1 -19
-4 -3 -9 4 -9 15 -2 23 3 25 10 4z m336 -4 c6 -10 21 -26 35 -35 24 -15 25
-15 19 1 -11 27 13 6 36 -32 11 -19 16 -35 11 -35 -6 0 -10 -7 -10 -16 0 -14
-3 -15 -21 -3 -11 8 -20 18 -19 23 2 13 -21 25 -38 19 -12 -5 -12 -7 2 -15 9
-5 13 -14 10 -20 -5 -7 -2 -8 7 -3 8 5 11 4 6 0 -4 -5 3 -19 15 -32 16 -17 18
-22 6 -18 -9 4 -19 13 -22 21 -3 8 -11 14 -17 14 -7 0 -8 -4 -2 -12 10 -14 10
-55 -1 -65 -4 -4 -13 0 -22 8 -19 19 -28 79 -12 79 7 0 3 7 -8 15 -16 13 -16
14 -1 9 15 -6 16 -3 7 21 -8 20 -7 31 2 43 10 12 10 16 1 19 -15 5 -18 33 -3
33 5 0 14 -8 19 -19z m658 -67 c-3 -3 -12 -4 -19 -1 -8 3 -5 6 6 6 11 1 17 -2
13 -5z m-732 -24 c3 -6 -1 -7 -9 -4 -18 7 -21 14 -7 14 6 0 13 -4 16 -10z
m590 -20 c3 -6 -1 -7 -9 -4 -18 7 -21 14 -7 14 6 0 13 -4 16 -10z m-559 -13
c4 -4 0 -7 -9 -7 -9 0 -18 4 -21 9 -7 10 20 9 30 -2z m-98 -57 c5 -51 -5 -74
-43 -102 -33 -23 -40 -25 -72 -15 -40 13 -73 57 -73 98 0 34 23 55 39 36 8
-11 6 -18 -8 -33 -18 -19 -17 -20 10 -46 24 -24 32 -26 61 -17 18 5 34 9 35 9
11 0 32 65 29 86 -3 17 -1 24 7 21 7 -2 13 -18 15 -37z m160 -85 c0 -15 -6
-25 -14 -25 -17 0 -17 5 -4 31 14 25 18 24 18 -6z m97 -4 c3 -16 13 -35 21
-42 8 -6 14 -20 14 -31 0 -11 5 -28 11 -40 13 -25 3 -80 -12 -57 -5 7 -9 11
-9 6 0 -4 5 -15 11 -25 8 -13 9 -28 2 -47 l-9 -29 -17 33 c-9 19 -17 49 -17
68 0 29 -3 33 -25 33 -14 0 -25 5 -25 10 0 6 -6 10 -12 10 -7 -1 -3 -9 10 -19
12 -11 22 -25 22 -33 0 -7 7 -26 15 -41 8 -15 14 -40 13 -55 0 -15 2 -36 5
-48 5 -22 -15 -27 -42 -10 -17 11 -30 -9 -24 -35 3 -10 0 -19 -5 -19 -13 0
-37 40 -25 40 4 0 -1 7 -11 15 -16 12 -17 17 -6 30 10 12 10 15 -4 15 -14 0
-18 6 -15 26 0 4 -5 11 -13 15 -7 5 -8 9 -2 9 6 0 10 10 10 23 -1 12 2 28 7
35 6 7 7 15 4 19 -4 3 -2 12 3 18 15 18 1 45 -24 46 -19 1 -18 2 4 8 25 7 25
7 3 13 -31 8 -29 23 4 25 14 0 21 -2 15 -6 -16 -10 9 -37 41 -43 22 -4 27 -2
22 10 -5 13 -3 13 11 1 14 -11 16 -10 14 6 -4 35 0 38 21 19 21 -19 21 -19 -1
18 -12 21 -19 42 -15 48 11 18 23 11 30 -19z m-88 -46 c0 -8 -4 -12 -9 -9 -4
3 -8 9 -8 15 0 5 4 9 8 9 5 0 9 -7 9 -15z m-128 -112 c-10 -11 -10 -14 -1 -9
7 4 12 2 12 -7 0 -10 -8 -13 -25 -9 -29 5 -34 28 -7 35 32 8 35 7 21 -10z
m501 -56 c0 -5 -4 -5 -10 -2 -5 3 -10 14 -10 23 0 15 2 15 10 2 5 -8 10 -19
10 -23z m80 -35 c0 -15 -2 -15 -10 -2 -13 20 -13 33 0 25 6 -3 10 -14 10 -23z
m-585 -2 c3 -5 1 -10 -4 -10 -6 0 -11 5 -11 10 0 6 2 10 4 10 3 0 8 -4 11 -10z
m-15 -80 c0 -5 -5 -10 -11 -10 -5 0 -7 5 -4 10 3 6 8 10 11 10 2 0 4 -4 4 -10z
m165 -66 c1 -5 6 -19 14 -32 7 -13 10 -28 8 -35 -3 -7 -8 -4 -13 8 -4 11 -14
26 -21 33 -17 17 -17 45 0 40 6 -3 12 -9 12 -14z m-36 -133 c-1 -20 -2 -22 -6
-6 -3 11 -10 26 -15 33 -8 9 -7 11 6 6 10 -4 16 -16 15 -33z m121 -42 c0 -5 5
-9 11 -9 5 0 7 5 4 10 -9 15 11 12 24 -4 17 -21 -1 -27 -43 -15 -21 6 -44 8
-52 5 -14 -5 -19 5 -9 16 9 9 65 7 65 -3z m121 -56 c13 -17 13 -17 -6 -3 -11
8 -22 16 -24 17 -2 2 0 3 6 3 6 0 17 -8 24 -17z"/>
<path d="M3146 3452 c-3 -5 3 -17 14 -27 11 -10 17 -21 15 -25 -3 -4 3 -10 13
-12 10 -3 18 0 18 6 -1 18 -53 69 -60 58z"/>
<path d="M2790 4660 c0 -11 4 -20 9 -20 5 0 7 9 4 20 -3 11 -7 20 -9 20 -2 0
-4 -9 -4 -20z"/>
<path d="M2946 4665 c-6 -17 9 -21 19 -5 4 6 11 7 17 4 7 -4 8 -2 4 4 -10 17
-33 15 -40 -3z"/>
<path d="M3005 4670 c-3 -5 1 -10 9 -10 8 0 18 5 21 10 3 6 -1 10 -9 10 -8 0
-18 -4 -21 -10z"/>
<path d="M3033 4654 c-49 -21 -48 -33 2 -16 25 8 45 18 45 23 0 12 -8 10 -47
-7z"/>
<path d="M2807 4484 c-3 -3 -3 -12 0 -20 3 -8 0 -21 -7 -29 -11 -13 -10 -14 6
-9 41 15 60 43 27 40 -10 0 -17 5 -15 12 2 13 -1 15 -11 6z"/>
<path d="M1237 4469 c7 -7 15 -10 18 -7 3 3 -2 9 -12 12 -14 6 -15 5 -6 -5z"/>
<path d="M2070 4472 c0 -5 7 -15 15 -22 8 -7 15 -9 15 -6 0 4 -7 14 -15 22 -8
9 -15 11 -15 6z"/>
<path d="M2517 4427 c-17 -33 -13 -54 4 -24 6 9 14 15 19 12 14 -8 18 19 5 32
-10 9 -16 5 -28 -20z"/>
<path d="M3010 4450 c-9 -6 -10 -10 -3 -10 6 0 15 5 18 10 8 12 4 12 -15 0z"/>
<path d="M2577 4444 c-4 -4 -7 -17 -7 -28 0 -12 -7 -32 -16 -44 -15 -22 -15
-24 5 -29 11 -3 18 -9 16 -14 -3 -4 8 -7 24 -6 16 1 27 4 25 6 -2 2 4 10 14
17 11 9 13 13 4 14 -7 0 -10 5 -7 11 5 6 11 4 19 -6 10 -14 14 -13 35 9 14 15
19 26 12 26 -7 0 -10 4 -6 9 11 20 -14 20 -38 1 -33 -26 -38 -25 -33 5 3 14 1
25 -4 25 -5 0 -15 2 -22 5 -8 3 -17 2 -21 -1z"/>
<path d="M2711 4377 c-14 -6 -26 -18 -29 -25 -3 -10 3 -10 27 2 17 9 31 21 31
26 0 12 0 12 -29 -3z"/>
<path d="M980 4350 c-13 -9 -13 -10 0 -9 8 0 24 4 35 9 l20 9 -20 0 c-11 0
-27 -4 -35 -9z"/>
<path d="M2530 4324 c0 -8 5 -12 10 -9 6 3 10 10 10 16 0 5 -4 9 -10 9 -5 0
-10 -7 -10 -16z"/>
<path d="M2960 4330 c0 -5 5 -10 11 -10 5 0 7 5 4 10 -3 6 -8 10 -11 10 -2 0
-4 -4 -4 -10z"/>
<path d="M2798 4286 c-28 -34 -26 -53 2 -35 8 5 11 9 5 9 -5 0 -3 4 5 10 9 6
17 5 21 -2 5 -8 16 -5 36 8 l28 19 -39 3 c-29 3 -36 6 -25 13 8 5 10 9 4 9 -5
0 -22 -15 -37 -34z"/>
<path d="M2146 4273 c-12 -12 -5 -33 19 -59 l25 -27 0 27 c0 26 -33 70 -44 59z"/>
<path d="M2500 4212 c0 -4 -9 -13 -21 -20 -17 -11 -20 -11 -14 0 4 7 -5 0 -19
-17 -22 -24 -25 -26 -16 -7 15 32 6 39 -17 13 -9 -12 -23 -21 -30 -21 -7 0
-14 -12 -14 -27 l-1 -28 -8 30 c-4 17 -9 26 -10 20 -1 -5 -3 -20 -6 -32 -2
-13 1 -23 6 -23 15 0 12 -67 -4 -73 -8 -3 -14 -22 -14 -52 -1 -26 -4 -55 -7
-64 -4 -13 1 -16 19 -16 33 2 48 16 74 68 12 24 32 49 45 56 13 7 28 25 34 39
l10 27 10 -24 10 -25 11 32 c6 18 15 32 20 32 5 0 15 14 22 31 10 23 10 33 1
42 -9 9 -11 9 -8 -3 2 -8 2 -11 -1 -6 -3 5 -11 -2 -18 -15 -7 -13 -13 -18 -14
-10 0 8 12 28 28 44 25 27 25 29 5 23 -12 -4 -24 -2 -28 5 -6 8 -10 7 -16 -2
-6 -10 -9 -11 -9 -1 0 6 -4 12 -10 12 -5 0 -10 -3 -10 -8z"/>
<path d="M1655 4130 c-3 -5 -1 -10 4 -10 6 0 11 5 11 10 0 6 -2 10 -4 10 -3 0
-8 -4 -11 -10z"/>
<path d="M2055 4130 c3 -5 8 -10 11 -10 2 0 4 5 4 10 0 6 -5 10 -11 10 -5 0
-7 -4 -4 -10z"/>
<path d="M1893 4098 c2 -12 13 -28 23 -35 18 -11 20 -10 22 12 1 15 -5 28 -17
35 -28 14 -31 13 -28 -12z"/>
<path d="M2035 4093 c5 -10 13 -37 19 -60 14 -51 24 -64 18 -23 -3 18 0 30 7
30 6 0 12 -19 12 -42 1 -24 3 -35 6 -25 2 9 9 15 14 12 14 -9 11 12 -6 46 -9
17 -21 27 -27 23 -7 -5 -9 2 -6 19 3 15 2 24 -3 22 -4 -3 -10 -1 -14 5 -11 17
-28 11 -20 -7z"/>
<path d="M1885 4045 c4 -16 9 -39 12 -50 2 -11 5 -26 5 -32 1 -7 5 -13 10 -13
14 0 -2 93 -19 110 -14 13 -15 12 -8 -15z"/>
<path d="M2770 4005 c-7 -9 -8 -15 -2 -15 5 0 12 7 16 15 3 8 4 15 2 15 -2 0
-9 -7 -16 -15z"/>
<path d="M1660 3986 c-9 -12 -5 -16 27 -21 21 -3 46 -10 56 -16 10 -5 22 -7
28 -3 6 3 20 -2 32 -13 l21 -18 -17 27 c-12 20 -13 28 -4 31 6 3 3 5 -8 5 -27
1 -47 6 -64 16 -10 7 -12 5 -6 -5 6 -11 5 -12 -6 -1 -17 16 -44 15 -59 -2z"/>
<path d="M1800 3996 c0 -2 7 -7 16 -10 8 -3 12 -2 9 4 -6 10 -25 14 -25 6z"/>
<path d="M2067 3950 c3 -11 7 -20 9 -20 2 0 4 9 4 20 0 11 -4 20 -9 20 -5 0
-7 -9 -4 -20z"/>
<path d="M1638 3953 c7 -3 16 -2 19 1 4 3 -2 6 -13 5 -11 0 -14 -3 -6 -6z"/>
<path d="M1870 3943 c0 -4 8 -17 16 -28 15 -20 16 -20 12 4 -3 22 -28 44 -28
24z"/>
<path d="M2177 3940 c-3 -8 -8 -33 -11 -55 l-5 -40 12 34 c8 19 19 37 25 39 7
2 12 11 12 20 0 14 -2 14 -9 3 -7 -11 -9 -11 -14 0 -4 11 -6 11 -10 -1z"/>
<path d="M1944 3928 c3 -10 1 -18 -5 -18 -13 0 -3 -48 14 -69 10 -11 13 -9 18
10 10 33 10 64 2 55 -4 -3 -13 4 -21 16 -7 13 -11 15 -8 6z"/>
<path d="M2705 3890 c-3 -5 -1 -10 4 -10 6 0 11 5 11 10 0 6 -2 10 -4 10 -3 0
-8 -4 -11 -10z"/>
<path d="M2616 3767 c3 -10 9 -15 12 -12 3 3 0 11 -7 18 -10 9 -11 8 -5 -6z"/>
<path d="M3660 3694 c0 -13 49 -48 57 -41 2 3 -6 11 -19 18 -12 6 -26 17 -30
23 -6 8 -8 8 -8 0z"/>
<path d="M3626 3625 c4 -8 11 -15 16 -15 6 0 5 6 -2 15 -7 8 -14 15 -16 15 -2
0 -1 -7 2 -15z"/>
<path d="M1718 3531 c-27 -25 -29 -30 -13 -28 11 1 21 6 22 11 1 4 10 14 20
21 10 7 15 16 11 20 -3 3 -21 -7 -40 -24z"/>
<path d="M1605 3501 c-6 -11 9 -23 19 -14 9 9 7 23 -3 23 -6 0 -12 -4 -16 -9z"/>
<path d="M1699 3473 c-13 -16 -12 -17 4 -4 9 7 17 15 17 17 0 8 -8 3 -21 -13z"/>
<path d="M1700 3420 c-8 -5 -12 -12 -9 -15 4 -3 12 1 19 10 14 17 11 19 -10 5z"/>
<path d="M1754 3408 c-4 -5 -4 -11 -1 -14 6 -6 37 6 37 15 0 11 -30 9 -36 -1z"/>
<path d="M1608 3403 c7 -3 16 -2 19 1 4 3 -2 6 -13 5 -11 0 -14 -3 -6 -6z"/>
<path d="M1576 3374 c-8 -20 1 -34 22 -34 15 0 15 -2 2 -10 -12 -8 -11 -10 5
-10 22 0 32 34 13 46 -6 4 -5 10 3 15 10 6 6 9 -12 9 -15 0 -29 -7 -33 -16z"/>
<path d="M1676 3371 c-3 -5 1 -11 9 -14 9 -4 12 -1 8 9 -6 16 -10 17 -17 5z"/>
<path d="M1530 3210 c-9 -6 -10 -10 -3 -10 6 0 15 5 18 10 8 12 4 12 -15 0z"/>
<path d="M2068 3168 c-3 -7 -16 -12 -30 -11 -19 2 -25 -2 -24 -14 0 -10 -7
-19 -18 -21 -11 -2 -16 0 -12 7 11 18 -9 13 -34 -9 -12 -11 -31 -22 -41 -25
-11 -4 -19 -10 -19 -15 0 -5 -18 -29 -40 -55 -45 -52 -61 -100 -66 -200 -4
-68 13 -175 27 -175 4 0 17 -17 30 -37 38 -64 68 -89 129 -109 64 -20 66 -23
49 -56 -10 -18 -9 -20 6 -14 12 4 18 0 22 -13 3 -12 11 -17 19 -14 8 3 14 -1
14 -10 0 -10 8 -13 25 -9 14 2 25 11 25 18 0 20 17 17 22 -3 6 -24 -26 -55
-41 -40 -6 6 -11 7 -11 1 0 -5 -8 -11 -17 -12 -48 -5 -73 -16 -73 -33 0 -5 6
-9 14 -9 8 0 27 -5 43 -11 15 -7 39 -13 53 -14 63 -6 117 -6 145 0 17 4 42 8
58 8 28 1 35 19 17 47 -8 12 -10 12 -10 -5 0 -17 -2 -17 -10 -5 -8 12 -12 13
-19 2 -6 -10 -11 -5 -20 19 -8 22 -8 36 -1 43 7 7 10 4 10 -8 0 -13 5 -17 20
-13 15 4 24 -4 41 -39 11 -24 22 -44 24 -44 8 0 -4 52 -17 72 -8 13 -18 37
-23 53 -6 25 -8 27 -14 12 -6 -16 -9 -17 -18 -5 -19 22 -26 64 -11 66 48 6 85
17 100 30 16 14 20 12 46 -18 22 -24 31 -29 37 -20 5 8 4 11 -3 6 -6 -3 -13
-2 -17 4 -3 5 -2 10 4 10 7 0 6 10 -1 31 -12 36 -5 47 17 25 9 -9 21 -16 26
-16 6 0 -2 11 -17 24 l-28 24 32 7 c18 4 31 12 29 18 -2 7 7 20 20 30 19 15
21 22 12 33 -9 11 -9 14 1 14 10 0 10 3 0 15 -10 12 -10 15 0 15 7 0 10 6 7
14 -4 9 3 16 16 20 21 6 21 7 4 17 -18 10 -18 12 3 34 l22 24 -23 -6 c-17 -3
-20 -2 -10 5 8 6 9 11 2 13 -9 3 -18 60 -21 126 0 7 -14 20 -30 28 -17 9 -28
20 -25 25 3 5 -4 11 -15 15 -11 4 -18 10 -15 14 2 5 -7 13 -20 19 -14 7 -25
16 -25 22 0 5 -12 10 -27 10 -22 0 -25 2 -13 10 19 12 4 13 -18 1 -16 -8 -73
5 -127 29 -11 5 -31 10 -45 12 -14 2 -31 9 -38 16 -17 15 -36 16 -26 1 5 -8 1
-8 -14 0 -27 14 -39 14 -44 -1z m202 -687 c0 -5 3 -18 7 -28 6 -16 5 -16 -10
-4 -19 15 -23 41 -7 41 6 0 10 -4 10 -9z m-70 -101 c0 -5 -4 -10 -10 -10 -5 0
-10 5 -10 10 0 6 5 10 10 10 6 0 10 -4 10 -10z m30 -9 c0 -6 -4 -13 -10 -16
-5 -3 -10 1 -10 9 0 9 5 16 10 16 6 0 10 -4 10 -9z m34 -22 c-8 -13 -24 -1
-24 18 0 13 3 13 15 3 8 -7 12 -16 9 -21z"/>
<path d="M2846 3137 c3 -9 14 -19 25 -22 11 -4 16 -11 13 -17 -4 -6 -3 -8 2
-5 6 3 16 2 24 -3 8 -5 22 -4 33 1 13 7 23 7 35 -3 14 -10 14 -9 -1 9 -12 14
-14 22 -7 25 8 2 6 9 -6 18 -10 8 -15 10 -11 3 10 -16 -12 -28 -26 -14 -18 18
-29 13 -22 -10 7 -20 5 -20 -29 6 -24 18 -34 22 -30 12z"/>
<path d="M1575 3130 c3 -5 11 -10 16 -10 6 0 7 5 4 10 -3 6 -11 10 -16 10 -6
0 -7 -4 -4 -10z"/>
<path d="M2781 3113 c7 -12 15 -20 18 -17 3 2 -3 12 -13 22 -17 16 -18 16 -5
-5z"/>
<path d="M1250 3080 c-9 -6 -10 -10 -3 -10 6 0 15 5 18 10 8 12 4 12 -15 0z"/>
<path d="M1611 3014 c0 -11 3 -14 6 -6 3 7 2 16 -1 19 -3 4 -6 -2 -5 -13z"/>
<path d="M2803 2970 c-3 -11 -10 -17 -16 -13 -6 4 -7 1 -2 -7 8 -13 11 -33 14
-82 0 -16 4 -28 9 -28 4 0 7 34 8 75 0 76 -4 91 -13 55z"/>
<path d="M2890 2972 c0 -5 -11 -14 -24 -20 -19 -8 -23 -17 -20 -41 2 -17 -1
-31 -7 -31 -6 0 -7 -5 -4 -10 4 -6 11 -8 16 -5 5 3 6 0 3 -8 -3 -9 3 -17 18
-21 38 -10 51 -7 44 9 -3 8 -1 15 4 15 13 0 13 27 0 32 -6 2 -12 14 -15 26 -3
18 0 22 10 18 8 -3 17 0 21 6 5 7 3 8 -5 4 -8 -5 -14 0 -18 13 -5 20 -23 30
-23 13z"/>
<path d="M1574 2921 c4 -5 0 -12 -6 -14 -8 -4 -7 -6 3 -6 9 -1 19 6 23 14 3 9
0 15 -10 15 -8 0 -13 -4 -10 -9z"/>
<path d="M3270 2913 c0 -1 12 -9 28 -17 15 -8 44 -31 65 -52 55 -55 54 -36 -1
22 -28 29 -56 49 -69 49 -13 1 -23 0 -23 -2z"/>
<path d="M3414 2859 c-4 -7 -3 -9 4 -5 6 3 16 -2 21 -13 17 -30 13 -36 -9 -16
-25 22 -26 15 -2 -12 13 -16 20 -18 29 -8 8 9 8 18 0 35 -14 28 -32 36 -43 19z"/>
<path d="M2810 2819 c0 -5 9 -9 20 -9 11 0 20 2 20 4 0 2 -9 6 -20 9 -11 3
-20 1 -20 -4z"/>
<path d="M2820 2791 c0 -5 12 -8 26 -8 18 0 22 2 13 8 -18 11 -39 11 -39 0z"/>
<path d="M2578 2783 c7 -3 16 -2 19 1 4 3 -2 6 -13 5 -11 0 -14 -3 -6 -6z"/>
<path d="M2990 2736 c0 -2 8 -10 18 -17 15 -13 16 -12 3 4 -13 16 -21 21 -21
13z"/>
<path d="M3457 2728 c6 -7 15 -26 21 -43 9 -26 11 -27 11 -7 1 28 -16 62 -31
62 -7 0 -7 -4 -1 -12z"/>
<path d="M2830 2570 c-9 -6 -10 -10 -3 -10 6 0 15 5 18 10 8 12 4 12 -15 0z"/>
<path d="M2490 2511 c0 -6 4 -13 10 -16 6 -3 7 1 4 9 -7 18 -14 21 -14 7z"/>
<path d="M2389 2454 c-10 -12 -10 -22 -1 -47 16 -43 7 -46 -17 -6 -17 28 -21
30 -21 13 0 -11 9 -29 20 -39 11 -10 20 -29 20 -42 0 -13 3 -22 8 -20 4 3 7
24 6 48 -1 42 0 42 17 20 10 -12 20 -17 23 -12 3 5 -1 14 -9 21 -8 7 -15 19
-15 26 0 8 -5 14 -12 14 -6 0 -8 3 -5 6 4 4 14 1 22 -6 14 -12 15 -11 4 13
-14 31 -21 33 -40 11z"/>
<path d="M2495 2426 c8 -13 12 -25 9 -29 -5 -4 11 -3 34 2 9 2 -30 45 -42 47
-13 2 -13 -1 -1 -20z"/>
<path d="M1642 2415 c0 -16 2 -22 5 -12 2 9 2 23 0 30 -3 6 -5 -1 -5 -18z"/>
<path d="M1917 2423 c-4 -3 -7 -13 -7 -22 1 -13 3 -13 11 2 11 19 8 33 -4 20z"/>
<path d="M1955 2399 c-4 -6 -5 -13 -2 -16 7 -7 27 6 27 18 0 12 -17 12 -25 -2z"/>
<path d="M1680 2354 c0 -14 4 -23 9 -20 5 3 7 15 4 26 -7 28 -13 25 -13 -6z"/>
<path d="M1647 2364 c-4 -4 -7 -17 -7 -28 1 -19 1 -20 11 -3 11 19 8 43 -4 31z"/>
<path d="M1985 2330 c-3 -5 -1 -10 4 -10 6 0 11 5 11 10 0 6 -2 10 -4 10 -3 0
-8 -4 -11 -10z"/>
<path d="M3261 2294 c0 -11 3 -14 6 -6 3 7 2 16 -1 19 -3 4 -6 -2 -5 -13z"/>
<path d="M1820 2261 c0 -16 5 -33 10 -36 6 -3 7 -18 4 -33 -3 -15 -2 -22 3
-16 5 6 24 -9 53 -41 51 -58 89 -90 97 -81 3 3 0 13 -8 22 -8 10 -13 19 -12
20 5 8 -10 64 -16 59 -3 -4 -18 20 -33 52 -21 45 -28 52 -28 33 l-1 -25 -10
23 c-5 13 -7 28 -3 33 8 13 -10 11 -25 -3 -10 -11 -12 -10 -9 1 2 7 -3 16 -9
18 -9 3 -13 -6 -13 -26z"/>
<path d="M1780 2271 c0 -6 4 -13 10 -16 6 -3 7 1 4 9 -7 18 -14 21 -14 7z"/>
<path d="M3211 2264 c0 -11 3 -14 6 -6 3 7 2 16 -1 19 -3 4 -6 -2 -5 -13z"/>
<path d="M1760 2239 c0 -14 7 -34 15 -45 18 -24 18 -19 0 31 -12 33 -14 36
-15 14z"/>
<path d="M3122 2230 c-1 -37 16 -92 17 -58 1 11 6 15 16 12 11 -5 15 1 15 21
0 14 -7 33 -15 41 -13 14 -15 12 -16 -13 l-1 -28 -8 30 -8 30 0 -35z"/>
<path d="M1734 2205 c-3 -8 -4 -20 -2 -27 3 -7 7 -1 10 15 6 29 1 36 -8 12z"/>
<path d="M1946 2205 c-9 -24 -7 -32 4 -15 6 9 10 10 10 3 0 -16 41 -85 47 -79
3 2 -3 21 -12 40 -15 31 -15 39 -4 54 13 16 12 16 -4 3 -15 -12 -20 -12 -26
-2 -6 10 -10 9 -15 -4z"/>
<path d="M3060 2174 c0 -8 -4 -12 -10 -9 -15 9 -23 -41 -10 -64 18 -35 33 -25
26 17 -6 36 -6 37 8 12 9 -14 15 -19 16 -12 0 7 4 11 9 8 4 -3 1 10 -8 29 -17
36 -31 45 -31 19z"/>
<path d="M3100 2161 c0 -6 4 -13 10 -16 6 -3 7 1 4 9 -7 18 -14 21 -14 7z"/>
<path d="M1741 2144 c0 -11 3 -14 6 -6 3 7 2 16 -1 19 -3 4 -6 -2 -5 -13z"/>
<path d="M3000 2106 c0 -13 -3 -33 -7 -43 -6 -17 -6 -17 10 -1 18 18 23 68 7
68 -5 0 -10 -11 -10 -24z"/>
<path d="M2971 2074 c0 -11 3 -14 6 -6 3 7 2 16 -1 19 -3 4 -6 -2 -5 -13z"/>
<path d="M3280 924 c0 -8 5 -12 10 -9 6 3 10 10 10 16 0 5 -4 9 -10 9 -5 0
-10 -7 -10 -16z"/>
</g>
</svg>
